REM DIRINDEX 1\2\3,1\2\4,1\2\5,1\2\6
REM DIRNAME cjc157,folder01,folder02,folder03,folder04,folder05
TITLE ""
FILE "010 010.mp3" MP3
  TRACK 01 AUDIO
    TITLE "0:"
    INDEX 01 00:00:00
  TRACK 02 AUDIO
    TITLE "3:cjc157_0323"
    INDEX 01 00:00:13
  TRACK 03 AUDIO
    TITLE "0:"
    INDEX 01 00:01:22
  TRACK 04 AUDIO
    TITLE "4:cjc157_0324"
    INDEX 01 00:01:66
  TRACK 05 AUDIO
    TITLE "0:"
    INDEX 01 00:03:00
  TRACK 06 AUDIO
    TITLE "5:cjc157_0325"
    INDEX 01 00:03:45
  TRACK 07 AUDIO
    TITLE "0:"
    INDEX 01 00:06:10
  TRACK 08 AUDIO
    TITLE "5:cjc157_0326"
    INDEX 01 00:06:57
  TRACK 09 AUDIO
    TITLE "0:"
    INDEX 01 00:09:51
  TRACK 10 AUDIO
    TITLE "5:cjc157_0327"
    INDEX 01 00:10:21
  TRACK 11 AUDIO
    TITLE "0:"
    INDEX 01 00:13:26
  TRACK 12 AUDIO
    TITLE "5:cjc157_0328"
    INDEX 01 00:13:73
  TRACK 13 AUDIO
    TITLE "0:"
    INDEX 01 00:15:36
  TRACK 14 AUDIO
    TITLE "3:cjc157_0329"
    INDEX 01 00:16:06
  TRACK 15 AUDIO
    TITLE "0:"
    INDEX 01 00:17:45
  TRACK 16 AUDIO
    TITLE "4:cjc157_0330"
    INDEX 01 00:18:13
  TRACK 17 AUDIO
    TITLE "0:"
    INDEX 01 00:19:30
  TRACK 18 AUDIO
    TITLE "5:cjc157_0331"
    INDEX 01 00:19:71
  TRACK 19 AUDIO
    TITLE "0:"
    INDEX 01 00:23:67
  TRACK 20 AUDIO
    TITLE "3:cjc157_0332"
    INDEX 01 00:24:41
  TRACK 21 AUDIO
    TITLE "0:"
    INDEX 01 00:25:37
  TRACK 22 AUDIO
    TITLE "4:cjc157_0333"
    INDEX 01 00:26:09
  TRACK 23 AUDIO
    TITLE "0:"
    INDEX 01 00:27:18
  TRACK 24 AUDIO
    TITLE "5:cjc157_0334"
    INDEX 01 00:27:63
  TRACK 25 AUDIO
    TITLE "0:"
    INDEX 01 00:30:18
  TRACK 26 AUDIO
    TITLE "5:cjc157_0335"
    INDEX 01 00:30:65
  TRACK 27 AUDIO
    TITLE "0:"
    INDEX 01 00:32:72
  TRACK 28 AUDIO
    TITLE "5:cjc157_0336"
    INDEX 01 00:33:42
  TRACK 29 AUDIO
    TITLE "0:"
    INDEX 01 00:35:00
  TRACK 30 AUDIO
    TITLE "3:cjc157_0337"
    INDEX 01 00:35:43
  TRACK 31 AUDIO
    TITLE "0:"
    INDEX 01 00:36:46
  TRACK 32 AUDIO
    TITLE "4:cjc157_0338"
    INDEX 01 00:37:14
  TRACK 33 AUDIO
    TITLE "0:"
    INDEX 01 00:38:20
  TRACK 34 AUDIO
    TITLE "5:cjc157_0339"
    INDEX 01 00:38:63
  TRACK 35 AUDIO
    TITLE "0:"
    INDEX 01 00:41:61
  TRACK 36 AUDIO
    TITLE "5:cjc157_0340"
    INDEX 01 00:42:33
  TRACK 37 AUDIO
    TITLE "0:"
    INDEX 01 00:44:05
  TRACK 38 AUDIO
    TITLE "5:cjc157_0341"
    INDEX 01 00:44:50
  TRACK 39 AUDIO
    TITLE "0:"
    INDEX 01 00:46:64
  TRACK 40 AUDIO
    TITLE "3:cjc157_0342"
    INDEX 01 00:47:30
  TRACK 41 AUDIO
    TITLE "0:"
    INDEX 01 00:48:71
  TRACK 42 AUDIO
    TITLE "4:cjc157_0343"
    INDEX 01 00:49:39
  TRACK 43 AUDIO
    TITLE "0:"
    INDEX 01 00:50:50
  TRACK 44 AUDIO
    TITLE "5:cjc157_0344"
    INDEX 01 00:51:20
  TRACK 45 AUDIO
    TITLE "0:"
    INDEX 01 00:53:45
  TRACK 46 AUDIO
    TITLE "3:cjc157_0345"
    INDEX 01 00:54:19
  TRACK 47 AUDIO
    TITLE "0:"
    INDEX 01 00:55:51
  TRACK 48 AUDIO
    TITLE "4:cjc157_0346"
    INDEX 01 00:56:20
  TRACK 49 AUDIO
    TITLE "0:"
    INDEX 01 00:57:41
  TRACK 50 AUDIO
    TITLE "5:cjc157_0347"
    INDEX 01 00:58:09
  TRACK 51 AUDIO
    TITLE "0:"
    INDEX 01 01:00:66
  TRACK 52 AUDIO
    TITLE "3:cjc157_0348"
    INDEX 01 01:01:33
  TRACK 53 AUDIO
    TITLE "0:"
    INDEX 01 01:02:40
  TRACK 54 AUDIO
    TITLE "4:cjc157_0349"
    INDEX 01 01:03:12
  TRACK 55 AUDIO
    TITLE "0:"
    INDEX 01 01:04:27
  TRACK 56 AUDIO
    TITLE "5:cjc157_0350"
    INDEX 01 01:04:72
  TRACK 57 AUDIO
    TITLE "0:"
    INDEX 01 01:08:17
  TRACK 58 AUDIO
    TITLE "3:cjc157_0351"
    INDEX 01 01:08:60
  TRACK 59 AUDIO
    TITLE "0:"
    INDEX 01 01:09:59
  TRACK 60 AUDIO
    TITLE "4:cjc157_0352"
    INDEX 01 01:10:30
  TRACK 61 AUDIO
    TITLE "0:"
    INDEX 01 01:11:35
  TRACK 62 AUDIO
    TITLE "5:cjc157_0353"
    INDEX 01 01:12:09
  TRACK 63 AUDIO
    TITLE "0:"
    INDEX 01 01:13:61
  TRACK 64 AUDIO
    TITLE "3:cjc157_0354"
    INDEX 01 01:14:27
  TRACK 65 AUDIO
    TITLE "0:"
    INDEX 01 01:15:35
  TRACK 66 AUDIO
    TITLE "4:cjc157_0355"
    INDEX 01 01:16:07
  TRACK 67 AUDIO
    TITLE "0:"
    INDEX 01 01:17:08
  TRACK 68 AUDIO
    TITLE "5:cjc157_0356"
    INDEX 01 01:17:55
  TRACK 69 AUDIO
    TITLE "0:"
    INDEX 01 01:19:56
  TRACK 70 AUDIO
    TITLE "5:cjc157_0357"
    INDEX 01 01:20:28
  TRACK 71 AUDIO
    TITLE "0:"
    INDEX 01 01:22:25
  TRACK 72 AUDIO
    TITLE "3:cjc157_0358"
    INDEX 01 01:22:66
  TRACK 73 AUDIO
    TITLE "0:"
    INDEX 01 01:24:06
  TRACK 74 AUDIO
    TITLE "4:cjc157_0359"
    INDEX 01 01:24:53
  TRACK 75 AUDIO
    TITLE "0:"
    INDEX 01 01:25:68
  TRACK 76 AUDIO
    TITLE "5:cjc157_0360"
    INDEX 01 01:26:42
  TRACK 77 AUDIO
    TITLE "0:"
    INDEX 01 01:28:65
  TRACK 78 AUDIO
    TITLE "5:cjc157_0361"
    INDEX 01 01:29:35
  TRACK 79 AUDIO
    TITLE "0:"
    INDEX 01 01:31:02
